<svg width="32" height="32" viewBox="0 0 32 32" fill="none" xmlns="http://www.w3.org/2000/svg">
<path d="M31 16C31.0001 17.3846 30.5897 18.738 29.8205 19.8893C29.0513 21.0405 27.958 21.9378 26.6789 22.4677C25.3998 22.9975 23.9922 23.1361 22.6343 22.866C21.2763 22.5959 20.029 21.9291 19.05 20.95L19.0088 20.9063L11.515 12.4438C10.8135 11.7504 9.92247 11.28 8.95418 11.0918C7.98589 10.9037 6.98357 11.0061 6.07337 11.3863C5.16316 11.7664 4.38574 12.4073 3.83893 13.2283C3.29211 14.0492 3.00035 15.0136 3.00035 16C3.00035 16.9864 3.29211 17.9508 3.83893 18.7718C4.38574 19.5927 5.16316 20.2336 6.07337 20.6138C6.98357 20.9939 7.98589 21.0964 8.95418 20.9082C9.92247 20.72 10.8135 20.2497 11.515 19.5563L12.58 18.3538C12.6671 18.2553 12.7728 18.1749 12.8909 18.1172C13.009 18.0596 13.1374 18.0257 13.2686 18.0177C13.3998 18.0096 13.5314 18.0275 13.6557 18.0702C13.78 18.113 13.8947 18.1798 13.9932 18.2669C14.0917 18.354 14.172 18.4596 14.2297 18.5778C14.2874 18.6959 14.3212 18.8242 14.3293 18.9555C14.3373 19.0867 14.3195 19.2182 14.2767 19.3425C14.234 19.4668 14.1671 19.5815 14.08 19.68L12.9938 20.9063L12.9525 20.95C11.9736 21.9289 10.7263 22.5955 9.36842 22.8656C8.01057 23.1356 6.60314 22.9969 5.3241 22.4671C4.04506 21.9373 2.95185 21.0401 2.18271 19.8889C1.41358 18.7378 1.00305 17.3845 1.00305 16C1.00305 14.6156 1.41358 13.2622 2.18271 12.1111C2.95185 10.96 4.04506 10.0628 5.3241 9.53293C6.60314 9.0031 8.01057 8.86443 9.36842 9.13447C10.7263 9.40451 11.9736 10.0711 12.9525 11.05L12.9938 11.0938L20.4875 19.5563C21.1891 20.2497 22.0801 20.72 23.0484 20.9082C24.0167 21.0964 25.019 20.9939 25.9292 20.6138C26.8394 20.2336 27.6169 19.5927 28.1637 18.7718C28.7105 17.9508 29.0022 16.9864 29.0022 16C29.0022 15.0136 28.7105 14.0492 28.1637 13.2283C27.6169 12.4073 26.8394 11.7664 25.9292 11.3863C25.019 11.0061 24.0167 10.9037 23.0484 11.0918C22.0801 11.28 21.1891 11.7504 20.4875 12.4438L19.4225 13.6463C19.2467 13.8452 18.999 13.9661 18.734 13.9824C18.469 13.9987 18.2083 13.909 18.0094 13.7331C17.8105 13.5573 17.6896 13.3096 17.6733 13.0446C17.657 12.7796 17.7467 12.5189 17.9225 12.32L19.0088 11.0938L19.05 11.05C20.029 10.071 21.2763 9.40418 22.6343 9.13405C23.9922 8.86391 25.3998 9.00253 26.6789 9.53239C27.958 10.0622 29.0513 10.9595 29.8205 12.1108C30.5897 13.262 31.0001 14.6155 31 16Z" fill="#0BA21A"/>
</svg>
